<?xml version="1.0" encoding="UTF-8" standalone="no" ?>
<!DOCTYPE svg PUBLIC "-//W3C//DTD SVG 1.1//EN" "http://www.w3.org/Graphics/SVG/1.1/DTD/svg11.dtd">
<svg xmlns="http://www.w3.org/2000/svg" xmlns:xlink="http://www.w3.org/1999/xlink" version="1.1" width="1080" height="1080" viewBox="0 0 1080 1080" xml:space="preserve">
<desc>Created with Fabric.js 5.2.4</desc>
<defs>
</defs>
<g transform="matrix(1 0 0 1 540 540)" id="19d0b665-29de-45b4-a1f0-a5c97446f506"  >
<rect style="stroke: none; stroke-width: 1; stroke-dasharray: none; stroke-linecap: butt; stroke-dashoffset: 0; stroke-linejoin: miter; stroke-miterlimit: 4; fill: rgb(255,255,255); fill-rule: nonzero; opacity: 1; visibility: hidden;" vector-effect="non-scaling-stroke"  x="-540" y="-540" rx="0" ry="0" width="1080" height="1080" />
</g>
<g transform="matrix(1 0 0 1 540 540)" id="d8f6835d-3a23-4b8a-97ce-091c0ab3aece"  >
</g>
<g transform="matrix(1 0 0 1 540 540)"  >
<g style="" vector-effect="non-scaling-stroke"   >
		<g transform="matrix(0.13 0 0 -0.13 13.93 -601.13)"  >
<path style="stroke: none; stroke-width: 1; stroke-dasharray: none; stroke-linecap: butt; stroke-dashoffset: 0; stroke-linejoin: miter; stroke-miterlimit: 4; fill: rgb(0,0,0); fill-rule: nonzero; opacity: 1;" vector-effect="non-scaling-stroke"  transform=" translate(-6410.48, -10907.99)" d="M 6495 12768 C 6417 12676 6240 12249 6140 11916 C 6009 11476 5940 11070 5921 10633 C 5895 10037 5990 9555 6191 9264 C 6258 9167 6335 9099 6429 9052 C 6495 9019 6513 9015 6579 9015 C 6644 9015 6662 9019 6702 9042 C 6787 9093 6851 9186 6887 9311 C 6902 9365 6905 9412 6904 9615 C 6902 10112 6853 10236 6495 10645 C 6351 10810 6249 10943 6213 11013 C 6167 11105 6170 11326 6221 11635 C 6250 11816 6293 11971 6382 12220 C 6498 12544 6540 12677 6547 12743 C 6554 12811 6538 12819 6495 12768 z" stroke-linecap="round" />
</g>
		<g transform="matrix(0.13 0 0 -0.13 -134.68 33.72)"  >
<path style="stroke: none; stroke-width: 1; stroke-dasharray: none; stroke-linecap: butt; stroke-dashoffset: 0; stroke-linejoin: miter; stroke-miterlimit: 4; fill: rgb(0,0,0); fill-rule: nonzero; opacity: 1;" vector-effect="non-scaling-stroke"  transform=" translate(-5295.88, -6146.58)" d="M 4391 12222 C 4353 12082 4342 11429 4373 11185 C 4395 11013 4394 10787 4370 10510 C 4345 10222 4345 10039 4370 9830 C 4395 9619 4395 9411 4370 9120 C 4345 8834 4345 8649 4370 8440 C 4395 8230 4395 8026 4370 7750 C 4345 7475 4345 7272 4370 7050 C 4395 6828 4395 6622 4370 6360 C 4344 6093 4344 5881 4370 5665 C 4395 5450 4395 5275 4370 4990 C 4346 4722 4345 4520 4365 4338 C 4375 4248 4379 4107 4379 3900 C 4378 3504 4392 3301 4471 2565 C 4511 2195 4516 2168 4581 1960 C 4730 1489 5016 890 5248 567 C 5357 414 5591 187 5713 115 C 5769 83 5941 37 6011 37 C 6107 36 6174 90 6217 200 C 6242 266 6242 469 6216 570 C 6158 798 6050 988 5863 1189 C 5690 1375 5466 1539 5306 1597 C 5283 1605 5229 1617 5184 1625 C 5080 1642 5029 1668 4954 1745 C 4650 2055 4497 2636 4445 3675 L 4440 3785 L 4494 3575 C 4578 3245 4658 3018 4797 2715 C 5060 2138 5436 1642 5715 1502 C 5827 1446 5875 1435 6000 1435 C 6144 1435 6182 1450 6214 1519 C 6233 1560 6235 1582 6234 1720 C 6233 1854 6230 1889 6207 1975 C 6159 2156 6048 2353 5880 2552 C 5747 2712 5616 2811 5405 2914 C 5289 2970 5195 3004 5120 3016 C 5081 3022 5065 3033 5000 3099 C 4958 3141 4897 3216 4865 3265 C 4742 3452 4585 3796 4536 3987 C 4503 4114 4459 4600 4444 4991 C 4437 5184 4444 5240 4466 5160 C 4473 5135 4510 4996 4549 4850 C 4667 4404 4751 4173 4901 3870 C 5047 3576 5206 3342 5392 3145 C 5623 2901 5819 2800 6037 2813 C 6193 2822 6232 2866 6238 3038 C 6246 3229 6205 3396 6104 3589 C 6023 3745 5930 3870 5795 4005 C 5603 4197 5424 4309 5211 4370 C 5033 4421 5015 4437 4870 4670 C 4575 5145 4496 5412 4460 6045 C 4448 6260 4439 6598 4445 6585 C 4447 6580 4475 6490 4505 6385 C 4772 5473 4928 5119 5239 4717 C 5453 4441 5622 4294 5800 4230 C 5855 4210 5885 4206 5990 4206 C 6097 4205 6121 4208 6155 4226 C 6223 4261 6235 4298 6235 4475 C 6234 4646 6218 4724 6151 4880 C 6066 5078 5955 5236 5785 5405 C 5606 5583 5421 5695 5203 5758 C 5026 5809 5004 5830 4812 6124 C 4661 6353 4603 6481 4555 6685 C 4491 6960 4459 7277 4446 7790 L 4440 7985 L 4461 7915 C 4472 7877 4511 7739 4547 7610 C 4673 7159 4770 6890 4910 6605 C 5103 6214 5423 5819 5660 5680 C 5772 5614 5835 5597 6000 5593 C 6179 5588 6187 5591 6217 5680 C 6271 5839 6232 6127 6128 6335 C 5935 6718 5556 7040 5180 7142 C 5139 7153 5087 7174 5066 7188 C 4983 7244 4779 7521 4682 7708 C 4577 7910 4507 8218 4471 8635 C 4460 8758 4439 9235 4441 9325 L 4442 9375 L 4461 9305 C 4683 8513 4748 8326 4917 7990 C 5048 7729 5176 7538 5353 7338 C 5516 7155 5656 7040 5800 6971 C 5995 6876 6144 6900 6212 7037 C 6233 7081 6235 7098 6235 7230 C 6235 7359 6232 7386 6206 7475 C 6169 7608 6076 7794 5993 7905 C 5906 8021 5741 8191 5626 8285 C 5448 8429 5293 8511 5164 8529 C 5125 8535 5085 8548 5067 8561 C 5016 8596 4945 8684 4839 8843 C 4553 9270 4467 9630 4444 10489 C 4440 10655 4441 10732 4448 10725 C 4459 10714 4483 10632 4565 10325 C 4745 9654 4959 9195 5281 8788 C 5500 8513 5746 8332 5946 8299 C 6006 8289 6025 8290 6073 8304 C 6195 8339 6242 8423 6241 8599 C 6240 8727 6228 8795 6184 8930 C 6117 9133 6001 9308 5800 9511 C 5562 9752 5345 9889 5157 9920 C 5081 9932 5036 9963 4953 10060 C 4803 10235 4670 10470 4602 10682 C 4500 10995 4456 11313 4440 11840 C 4431 12158 4424 12246 4409 12256 C 4405 12258 4396 12243 4391 12222 z" stroke-linecap="round" />
</g>
		<g transform="matrix(0.13 0 0 -0.13 139.6 -618.73)"  >
<path style="stroke: none; stroke-width: 1; stroke-dasharray: none; stroke-linecap: butt; stroke-dashoffset: 0; stroke-linejoin: miter; stroke-miterlimit: 4; fill: rgb(0,0,0); fill-rule: nonzero; opacity: 1;" vector-effect="non-scaling-stroke"  transform=" translate(-7352.96, -11039.98)" d="M 7230 12171 C 7214 12141 7217 12122 7266 11901 C 7324 11639 7339 11528 7347 11305 C 7359 10958 7319 10637 7203 10147 C 7140 9881 7139 9890 7220 9890 C 7294 9890 7321 9920 7377 10069 C 7447 10254 7535 10810 7547 11130 C 7554 11354 7543 11430 7409 12060 C 7397 12118 7383 12171 7377 12178 C 7371 12185 7343 12190 7304 12190 C 7252 12190 7239 12187 7230 12171 z" stroke-linecap="round" />
</g>
		<g transform="matrix(0.13 0 0 -0.13 -137.8 -632.36)"  >
<path style="stroke: none; stroke-width: 1; stroke-dasharray: none; stroke-linecap: butt; stroke-dashoffset: 0; stroke-linejoin: miter; stroke-miterlimit: 4; fill: rgb(0,0,0); fill-rule: nonzero; opacity: 1;" vector-effect="non-scaling-stroke"  transform=" translate(-5272.5, -11142.22)" d="M 5281 12072 C 5262 12058 5249 12006 5195 11736 C 5097 11249 5095 11237 5095 10980 C 5095 10816 5100 10721 5113 10631 C 5144 10420 5179 10257 5198 10230 C 5222 10199 5267 10187 5327 10197 C 5387 10207 5389 10215 5361 10389 C 5305 10741 5283 11075 5300 11323 C 5314 11535 5336 11649 5400 11853 C 5427 11940 5450 12020 5450 12031 C 5450 12041 5441 12059 5430 12070 C 5403 12097 5312 12098 5281 12072 z" stroke-linecap="round" />
</g>
		<g transform="matrix(0.13 0 0 -0.13 126.57 -405.21)"  >
<path style="stroke: none; stroke-width: 1; stroke-dasharray: none; stroke-linecap: butt; stroke-dashoffset: 0; stroke-linejoin: miter; stroke-miterlimit: 4; fill: rgb(0,0,0); fill-rule: nonzero; opacity: 1;" vector-effect="non-scaling-stroke"  transform=" translate(-7255.26, -9438.54)" d="M 8151 11165 C 8145 11140 8130 11022 8119 10902 C 8068 10354 8025 10215 7720 9605 L 7545 9255 L 7439 9239 C 7304 9218 7245 9200 7140 9150 C 6845 9007 6558 8728 6417 8445 C 6340 8292 6328 8239 6322 8048 C 6315 7787 6330 7727 6413 7687 C 6495 7646 6704 7671 6833 7737 C 7092 7867 7392 8254 7716 8875 C 7940 9306 8076 9762 8145 10320 C 8191 10692 8206 11210 8170 11210 C 8166 11210 8157 11190 8151 11165 z" stroke-linecap="round" />
</g>
		<g transform="matrix(0.13 0 0 -0.13 595.06 -274.29)"  >
<path style="stroke: none; stroke-width: 1; stroke-dasharray: none; stroke-linecap: butt; stroke-dashoffset: 0; stroke-linejoin: miter; stroke-miterlimit: 4; fill: rgb(0,0,0); fill-rule: nonzero; opacity: 1;" vector-effect="non-scaling-stroke"  transform=" translate(-10768.94, -8456.64)" d="M 11496 10002 C 11484 9982 11462 9768 11445 9515 C 11397 8763 11220 8278 10945 8145 C 10918 8132 10864 8116 10826 8110 C 10700 8090 10550 8015 10395 7895 C 10219 7758 10081 7537 10035 7319 C 10004 7174 10019 7058 10077 6990 C 10131 6927 10181 6906 10271 6905 C 10340 6905 10354 6909 10431 6947 C 10546 7005 10635 7074 10765 7205 C 10897 7338 10972 7441 11044 7587 C 11197 7896 11392 8424 11439 8658 C 11484 8876 11510 9210 11517 9630 C 11522 9942 11516 10035 11496 10002 z" stroke-linecap="round" />
</g>
		<g transform="matrix(0.13 0 0 -0.13 125.17 -221.47)"  >
<path style="stroke: none; stroke-width: 1; stroke-dasharray: none; stroke-linecap: butt; stroke-dashoffset: 0; stroke-linejoin: miter; stroke-miterlimit: 4; fill: rgb(0,0,0); fill-rule: nonzero; opacity: 1;" vector-effect="non-scaling-stroke"  transform=" translate(-7244.72, -8060.49)" d="M 8167 9814 C 8152 9788 8138 9704 8120 9517 C 8089 9192 8055 9006 7985 8791 C 7893 8507 7707 8145 7567 7977 C 7521 7922 7475 7895 7407 7887 C 7249 7866 6975 7694 6765 7485 C 6540 7261 6382 7010 6324 6783 C 6277 6603 6305 6370 6378 6322 C 6400 6308 6429 6305 6550 6305 C 6681 6306 6702 6308 6768 6332 C 6874 6370 6941 6414 7043 6510 C 7329 6780 7699 7382 7891 7890 C 8044 8294 8119 8635 8171 9170 C 8186 9330 8195 9783 8183 9805 C 8177 9814 8170 9819 8167 9814 z" stroke-linecap="round" />
</g>
		<g transform="matrix(0.13 0 0 -0.13 -595.46 -244.62)"  >
<path style="stroke: none; stroke-width: 1; stroke-dasharray: none; stroke-linecap: butt; stroke-dashoffset: 0; stroke-linejoin: miter; stroke-miterlimit: 4; fill: rgb(0,0,0); fill-rule: nonzero; opacity: 1;" vector-effect="non-scaling-stroke"  transform=" translate(-1840, -8234.11)" d="M 1094 9755 C 1083 9695 1097 9084 1114 8883 C 1146 8511 1174 8373 1272 8085 C 1393 7729 1553 7362 1654 7210 C 1790 7006 2065 6761 2224 6701 C 2341 6657 2475 6685 2536 6766 C 2633 6893 2597 7155 2445 7414 C 2394 7502 2239 7661 2140 7727 C 2003 7819 1876 7875 1774 7889 C 1680 7903 1625 7934 1535 8024 C 1423 8137 1352 8279 1281 8531 C 1211 8782 1182 8989 1155 9409 C 1134 9731 1113 9853 1094 9755 z" stroke-linecap="round" />
</g>
		<g transform="matrix(0.13 0 0 -0.13 533.12 -299.95)"  >
<path style="stroke: none; stroke-width: 1; stroke-dasharray: none; stroke-linecap: butt; stroke-dashoffset: 0; stroke-linejoin: miter; stroke-miterlimit: 4; fill: rgb(0,0,0); fill-rule: nonzero; opacity: 1;" vector-effect="non-scaling-stroke"  transform=" translate(-10304.36, -8649.08)" d="M 10618 9468 C 10490 9399 10422 9311 10299 9055 C 10145 8735 9930 8088 9913 7894 C 9908 7838 9910 7831 9931 7816 C 9944 7807 9971 7800 9991 7800 C 10026 7800 10029 7803 10044 7843 C 10052 7866 10066 7923 10075 7970 C 10166 8444 10314 8830 10539 9183 C 10655 9364 10706 9460 10697 9484 C 10689 9505 10684 9505 10618 9468 z" stroke-linecap="round" />
</g>
		<g transform="matrix(0.13 0 0 -0.13 -540.37 -270.12)"  >
<path style="stroke: none; stroke-width: 1; stroke-dasharray: none; stroke-linecap: butt; stroke-dashoffset: 0; stroke-linejoin: miter; stroke-miterlimit: 4; fill: rgb(0,0,0); fill-rule: nonzero; opacity: 1;" vector-effect="non-scaling-stroke"  transform=" translate(-2253.24, -8425.41)" d="M 1830 9262 L 1808 9244 L 1838 9184 C 1854 9152 1927 9042 2000 8940 C 2073 8838 2154 8718 2181 8672 C 2337 8409 2445 8130 2525 7786 C 2577 7562 2575 7564 2635 7576 C 2713 7590 2716 7625 2661 7843 C 2525 8374 2214 9073 2049 9213 C 1978 9275 1874 9298 1830 9262 z" stroke-linecap="round" />
</g>
		<g transform="matrix(0.13 0 0 -0.13 730.33 -213.05)"  >
<path style="stroke: none; stroke-width: 1; stroke-dasharray: none; stroke-linecap: butt; stroke-dashoffset: 0; stroke-linejoin: miter; stroke-miterlimit: 4; fill: rgb(0,0,0); fill-rule: nonzero; opacity: 1;" vector-effect="non-scaling-stroke"  transform=" translate(-11783.42, -7997.37)" d="M 12063 8691 C 12029 8636 11999 8538 11990 8452 C 11966 8226 11821 7931 11546 7547 C 11486 7464 11433 7385 11427 7372 C 11413 7341 11437 7319 11509 7296 C 11577 7275 11598 7286 11633 7362 C 11646 7391 11718 7521 11792 7650 C 11942 7911 11995 8013 12041 8127 C 12110 8300 12140 8429 12143 8562 C 12145 8645 12144 8650 12116 8679 C 12081 8715 12079 8716 12063 8691 z" stroke-linecap="round" />
</g>
		<g transform="matrix(0.13 0 0 -0.13 444.46 -118.23)"  >
<path style="stroke: none; stroke-width: 1; stroke-dasharray: none; stroke-linecap: butt; stroke-dashoffset: 0; stroke-linejoin: miter; stroke-miterlimit: 4; fill: rgb(0,0,0); fill-rule: nonzero; opacity: 1;" vector-effect="non-scaling-stroke"  transform=" translate(-9639.43, -7286.24)" d="M 9530 8574 C 9512 8549 9486 8501 9470 8467 C 9383 8275 9261 7535 9260 7200 C 9260 6873 9359 6421 9486 6168 C 9569 6003 9650 5945 9786 5952 C 9928 5959 9991 6038 10011 6235 C 10027 6387 10017 6744 9995 6830 C 9957 6976 9843 7170 9675 7370 C 9554 7515 9511 7598 9503 7702 C 9494 7820 9526 8170 9571 8453 C 9599 8631 9589 8661 9530 8574 z" stroke-linecap="round" />
</g>
		<g transform="matrix(0.13 0 0 -0.13 -730.75 -184.06)"  >
<path style="stroke: none; stroke-width: 1; stroke-dasharray: none; stroke-linecap: butt; stroke-dashoffset: 0; stroke-linejoin: miter; stroke-miterlimit: 4; fill: rgb(0,0,0); fill-rule: nonzero; opacity: 1;" vector-effect="non-scaling-stroke"  transform=" translate(-825.35, -7779.91)" d="M 515 8491 C 461 8480 450 8420 470 8260 C 500 8033 584 7830 807 7445 C 868 7340 936 7219 958 7175 C 1013 7066 1026 7054 1086 7069 C 1152 7086 1190 7107 1190 7128 C 1190 7138 1146 7209 1092 7285 C 901 7557 758 7838 670 8114 C 632 8233 610 8339 610 8403 C 610 8487 588 8507 515 8491 z" stroke-linecap="round" />
</g>
		<g transform="matrix(0.13 0 0 -0.13 126.28 -38.45)"  >
<path style="stroke: none; stroke-width: 1; stroke-dasharray: none; stroke-linecap: butt; stroke-dashoffset: 0; stroke-linejoin: miter; stroke-miterlimit: 4; fill: rgb(0,0,0); fill-rule: nonzero; opacity: 1;" vector-effect="non-scaling-stroke"  transform=" translate(-7253.08, -6687.9)" d="M 8149 8409 C 8143 8396 8134 8313 8129 8221 C 8117 7990 8097 7860 8039 7630 C 7964 7329 7840 7033 7670 6749 C 7567 6576 7538 6549 7424 6515 C 7174 6440 7016 6351 6814 6172 C 6480 5875 6306 5536 6306 5180 C 6306 5091 6309 5068 6328 5028 C 6361 4961 6391 4949 6542 4949 C 6781 4949 6886 4989 7042 5139 C 7316 5401 7638 5904 7849 6397 C 7989 6725 8074 7079 8149 7650 C 8194 7988 8213 8322 8191 8399 C 8182 8432 8164 8436 8149 8409 z" stroke-linecap="round" />
</g>
		<g transform="matrix(0.13 0 0 -0.13 -445 -87.8)"  >
<path style="stroke: none; stroke-width: 1; stroke-dasharray: none; stroke-linecap: butt; stroke-dashoffset: 0; stroke-linejoin: miter; stroke-miterlimit: 4; fill: rgb(0,0,0); fill-rule: nonzero; opacity: 1;" vector-effect="non-scaling-stroke"  transform=" translate(-2968.49, -7057.99)" d="M 3024 8387 C 3021 8378 3029 8292 3044 8198 C 3075 7988 3087 7884 3100 7716 C 3124 7400 3110 7354 2919 7127 C 2786 6969 2667 6774 2626 6645 C 2579 6496 2576 6030 2621 5880 C 2641 5814 2699 5756 2766 5735 C 2815 5720 2832 5719 2883 5728 C 2915 5734 2961 5751 2985 5765 C 3172 5874 3364 6549 3347 7040 C 3333 7436 3214 8099 3124 8276 C 3082 8361 3034 8413 3024 8387 z" stroke-linecap="round" />
</g>
		<g transform="matrix(0.13 0 0 -0.13 680.23 -91.45)"  >
<path style="stroke: none; stroke-width: 1; stroke-dasharray: none; stroke-linecap: butt; stroke-dashoffset: 0; stroke-linejoin: miter; stroke-miterlimit: 4; fill: rgb(0,0,0); fill-rule: nonzero; opacity: 1;" vector-effect="non-scaling-stroke"  transform=" translate(-11407.67, -7085.33)" d="M 12546 7946 C 12527 7927 12463 7847 12404 7768 C 12238 7549 11931 7250 11783 7164 C 11707 7119 11650 7110 11380 7100 C 11108 7091 10981 7073 10857 7026 C 10598 6929 10329 6718 10245 6547 C 10160 6375 10213 6252 10391 6205 C 10469 6184 10560 6187 10680 6214 C 10911 6266 11140 6374 11365 6534 C 11695 6770 12206 7302 12432 7645 C 12505 7757 12610 7946 12610 7966 C 12610 7990 12582 7981 12546 7946 z" stroke-linecap="round" />
</g>
		<g transform="matrix(0.13 0 0 -0.13 382.95 7.33)"  >
<path style="stroke: none; stroke-width: 1; stroke-dasharray: none; stroke-linecap: butt; stroke-dashoffset: 0; stroke-linejoin: miter; stroke-miterlimit: 4; fill: rgb(0,0,0); fill-rule: nonzero; opacity: 1;" vector-effect="non-scaling-stroke"  transform=" translate(-9178.11, -6344.51)" d="M 9113 7746 C 9011 7660 8864 7047 8799 6430 C 8733 5817 8912 5103 9168 4952 C 9209 4929 9226 4925 9296 4925 C 9366 4925 9381 4928 9417 4952 C 9523 5022 9571 5173 9571 5434 C 9571 5750 9506 5914 9214 6345 C 9058 6574 9021 6673 9020 6856 C 9020 6964 9034 7069 9101 7459 C 9128 7620 9149 7757 9148 7762 C 9146 7768 9130 7760 9113 7746 z" stroke-linecap="round" />
</g>
		<g transform="matrix(0.13 0 0 -0.13 -680.34 -62.17)"  >
<path style="stroke: none; stroke-width: 1; stroke-dasharray: none; stroke-linecap: butt; stroke-dashoffset: 0; stroke-linejoin: miter; stroke-miterlimit: 4; fill: rgb(0,0,0); fill-rule: nonzero; opacity: 1;" vector-effect="non-scaling-stroke"  transform=" translate(-1203.4, -6865.76)" d="M 5 7750 C -6 7733 12 7686 74 7565 C 164 7393 278 7211 323 7170 C 345 7151 507 6990 684 6813 C 1099 6398 1266 6266 1555 6125 C 1778 6017 1966 5966 2124 5972 C 2210 5975 2234 5980 2282 6003 C 2389 6055 2423 6127 2396 6238 C 2363 6372 2265 6493 2090 6617 C 1969 6704 1777 6800 1672 6829 C 1575 6856 1451 6868 1180 6880 C 925 6890 883 6899 794 6961 C 621 7082 350 7353 192 7562 C 105 7678 31 7760 15 7760 C 13 7760 9 7756 5 7750 z" stroke-linecap="round" />
</g>
		<g transform="matrix(0.13 0 0 -0.13 -383.27 37.13)"  >
<path style="stroke: none; stroke-width: 1; stroke-dasharray: none; stroke-linecap: butt; stroke-dashoffset: 0; stroke-linejoin: miter; stroke-miterlimit: 4; fill: rgb(0,0,0); fill-rule: nonzero; opacity: 1;" vector-effect="non-scaling-stroke"  transform=" translate(-3431.44, -6121.01)" d="M 3460 7535 C 3460 7526 3482 7390 3510 7232 C 3597 6733 3607 6600 3571 6458 C 3545 6356 3508 6286 3383 6101 C 3099 5680 3038 5522 3039 5200 C 3040 4867 3133 4696 3315 4696 C 3510 4696 3666 4931 3764 5370 C 3853 5772 3844 6158 3729 6771 C 3647 7214 3560 7481 3481 7536 C 3462 7550 3460 7549 3460 7535 z" stroke-linecap="round" />
</g>
		<g transform="matrix(0.13 0 0 -0.13 622.34 24.64)"  >
<path style="stroke: none; stroke-width: 1; stroke-dasharray: none; stroke-linecap: butt; stroke-dashoffset: 0; stroke-linejoin: miter; stroke-miterlimit: 4; fill: rgb(0,0,0); fill-rule: nonzero; opacity: 1;" vector-effect="non-scaling-stroke"  transform=" translate(-10973.5, -6214.67)" d="M 12171 7175 C 12143 7144 12056 7023 11978 6907 C 11707 6501 11562 6329 11405 6225 C 11230 6109 11159 6093 10779 6081 C 10450 6072 10421 6066 10252 5981 C 9843 5776 9596 5414 9762 5264 C 9841 5192 9984 5188 10238 5251 C 10745 5376 11236 5722 11656 6250 C 11946 6614 12279 7175 12233 7221 C 12226 7228 12206 7213 12171 7175 z" stroke-linecap="round" />
</g>
		<g transform="matrix(0.13 0 0 -0.13 126.25 146.32)"  >
<path style="stroke: none; stroke-width: 1; stroke-dasharray: none; stroke-linecap: butt; stroke-dashoffset: 0; stroke-linejoin: miter; stroke-miterlimit: 4; fill: rgb(0,0,0); fill-rule: nonzero; opacity: 1;" vector-effect="non-scaling-stroke"  transform=" translate(-7252.89, -5302.05)" d="M 8141 6990 C 8135 6962 8130 6909 8130 6872 C 8130 6668 8054 6248 7969 5982 C 7888 5732 7634 5265 7533 5181 C 7510 5162 7469 5144 7416 5130 C 7261 5089 7160 5044 7030 4957 C 6709 4744 6430 4389 6334 4075 C 6287 3920 6297 3666 6354 3595 L 6378 3565 L 6537 3566 C 6792 3567 6890 3602 7037 3743 C 7249 3947 7455 4259 7714 4770 C 7911 5158 7975 5326 8045 5645 C 8156 6145 8233 6881 8189 7009 C 8173 7055 8153 7048 8141 6990 z" stroke-linecap="round" />
</g>
		<g transform="matrix(0.13 0 0 -0.13 -622.84 54.44)"  >
<path style="stroke: none; stroke-width: 1; stroke-dasharray: none; stroke-linecap: butt; stroke-dashoffset: 0; stroke-linejoin: miter; stroke-miterlimit: 4; fill: rgb(0,0,0); fill-rule: nonzero; opacity: 1;" vector-effect="non-scaling-stroke"  transform=" translate(-1634.72, -5991.21)" d="M 370 6980 C 370 6880 702 6341 974 6000 C 1103 5838 1374 5569 1522 5455 C 1861 5194 2226 5031 2571 4988 C 2735 4968 2845 5002 2885 5086 C 2911 5140 2901 5228 2862 5307 C 2774 5481 2587 5644 2339 5765 C 2169 5847 2150 5850 1805 5860 C 1478 5869 1451 5874 1325 5934 C 1102 6039 968 6182 652 6653 C 478 6911 409 7000 384 7000 C 376 7000 370 6991 370 6980 z" stroke-linecap="round" />
</g>
		<g transform="matrix(0.13 0 0 -0.13 318.66 149.93)"  >
<path style="stroke: none; stroke-width: 1; stroke-dasharray: none; stroke-linecap: butt; stroke-dashoffset: 0; stroke-linejoin: miter; stroke-miterlimit: 4; fill: rgb(0,0,0); fill-rule: nonzero; opacity: 1;" vector-effect="non-scaling-stroke"  transform=" translate(-8695.9, -5274.99)" d="M 8555 6543 C 8474 6349 8389 6022 8351 5755 C 8231 4922 8401 4116 8732 3951 C 8870 3882 8976 3929 9030 4083 C 9079 4222 9093 4440 9065 4604 C 9023 4843 8882 5135 8692 5378 C 8602 5491 8575 5536 8551 5607 C 8508 5734 8513 5869 8576 6245 C 8620 6511 8629 6630 8607 6630 C 8597 6630 8579 6599 8555 6543 z" stroke-linecap="round" />
</g>
		<g transform="matrix(0.13 0 0 -0.13 -318.94 179.63)"  >
<path style="stroke: none; stroke-width: 1; stroke-dasharray: none; stroke-linecap: butt; stroke-dashoffset: 0; stroke-linejoin: miter; stroke-miterlimit: 4; fill: rgb(0,0,0); fill-rule: nonzero; opacity: 1;" vector-effect="non-scaling-stroke"  transform=" translate(-3913.96, -5052.28)" d="M 3993 6323 C 3997 6274 4015 6140 4034 6024 C 4054 5909 4075 5753 4082 5678 C 4092 5560 4092 5533 4077 5459 C 4057 5357 4018 5278 3939 5180 C 3755 4952 3634 4722 3564 4467 C 3532 4353 3521 4154 3539 4030 C 3578 3769 3672 3660 3824 3704 C 4209 3816 4402 4720 4240 5652 C 4211 5817 4157 6025 4099 6197 C 4020 6428 3982 6473 3993 6323 z" stroke-linecap="round" />
</g>
		<g transform="matrix(0.13 0 0 -0.13 546.5 176.79)"  >
<path style="stroke: none; stroke-width: 1; stroke-dasharray: none; stroke-linecap: butt; stroke-dashoffset: 0; stroke-linejoin: miter; stroke-miterlimit: 4; fill: rgb(0,0,0); fill-rule: nonzero; opacity: 1;" vector-effect="non-scaling-stroke"  transform=" translate(-10404.7, -5073.58)" d="M 11565 5911 C 11528 5888 11472 5829 11244 5575 C 11009 5313 10884 5188 10829 5162 C 10757 5127 10652 5110 10314 5080 C 9961 5048 9755 4998 9604 4909 C 9482 4837 9339 4670 9241 4486 C 9201 4409 9201 4369 9242 4309 C 9297 4228 9308 4225 9520 4225 C 9777 4226 9884 4252 10125 4372 C 10528 4573 11033 5022 11317 5430 C 11433 5597 11606 5898 11598 5920 C 11596 5925 11582 5921 11565 5911 z" stroke-linecap="round" />
</g>
		<g transform="matrix(0.13 0 0 -0.13 125.35 327.4)"  >
<path style="stroke: none; stroke-width: 1; stroke-dasharray: none; stroke-linecap: butt; stroke-dashoffset: 0; stroke-linejoin: miter; stroke-miterlimit: 4; fill: rgb(0,0,0); fill-rule: nonzero; opacity: 1;" vector-effect="non-scaling-stroke"  transform=" translate(-7246.1, -3944.01)" d="M 8161 5697 C 8145 5657 8132 5561 8115 5365 C 8083 5004 8021 4741 7898 4440 C 7826 4262 7614 3873 7557 3812 C 7524 3777 7492 3763 7391 3741 C 7041 3664 6610 3308 6426 2942 C 6342 2776 6294 2560 6302 2395 C 6308 2279 6328 2234 6388 2201 C 6481 2150 6681 2165 6825 2234 C 7091 2361 7400 2760 7719 3390 C 7912 3771 8019 4087 8096 4499 C 8149 4786 8189 5219 8191 5510 C 8192 5694 8182 5753 8161 5697 z" stroke-linecap="round" />
</g>
		<g transform="matrix(0.13 0 0 -0.13 -546.2 206.6)"  >
<path style="stroke: none; stroke-width: 1; stroke-dasharray: none; stroke-linecap: butt; stroke-dashoffset: 0; stroke-linejoin: miter; stroke-miterlimit: 4; fill: rgb(0,0,0); fill-rule: nonzero; opacity: 1;" vector-effect="non-scaling-stroke"  transform=" translate(-2209.48, -4849.98)" d="M 1022 5649 C 1032 5547 1155 5346 1358 5100 C 1484 4948 1803 4630 1965 4496 C 2287 4229 2640 4042 2888 4009 C 2933 4003 3040 4000 3127 4002 C 3309 4005 3321 4010 3371 4088 C 3411 4151 3409 4187 3358 4279 C 3133 4692 2912 4808 2255 4860 C 1972 4882 1824 4910 1758 4952 C 1703 4987 1581 5111 1336 5385 C 1024 5732 1013 5741 1022 5649 z" stroke-linecap="round" />
</g>
		<g transform="matrix(0.13 0 0 -0.13 461.3 362.54)"  >
<path style="stroke: none; stroke-width: 1; stroke-dasharray: none; stroke-linecap: butt; stroke-dashoffset: 0; stroke-linejoin: miter; stroke-miterlimit: 4; fill: rgb(0,0,0); fill-rule: nonzero; opacity: 1;" vector-effect="non-scaling-stroke"  transform=" translate(-9765.77, -3680.43)" d="M 11188 5121 C 11165 5095 11103 5010 11051 4934 C 10832 4612 10694 4453 10493 4293 C 10268 4114 10172 4082 9910 4101 C 9668 4118 9515 4088 9302 3981 C 9097 3878 8916 3731 8842 3607 C 8801 3539 8764 3433 8755 3359 C 8750 3309 8752 3299 8772 3276 C 8803 3240 8931 3189 9006 3183 C 9116 3173 9355 3224 9512 3289 C 9739 3384 9899 3512 10430 4019 C 10706 4283 10780 4349 10780 4333 C 10780 4318 10567 3949 10495 3838 C 10458 3782 10395 3692 10356 3640 C 10272 3527 10034 3285 9935 3212 C 9833 3136 9784 3124 9487 3101 C 9012 3063 8825 3012 8591 2856 C 8381 2716 8298 2589 8283 2384 C 8276 2284 8285 2266 8356 2233 C 8442 2194 8564 2183 8701 2202 C 8846 2223 8938 2254 9125 2345 C 9518 2538 9908 2881 10285 3365 C 10523 3670 10707 3987 10894 4413 C 10930 4494 10995 4621 11039 4694 C 11136 4856 11189 4961 11224 5058 C 11268 5181 11258 5199 11188 5121 z" stroke-linecap="round" />
</g>
		<g transform="matrix(0.13 0 0 -0.13 281.01 332.16)"  >
<path style="stroke: none; stroke-width: 1; stroke-dasharray: none; stroke-linecap: butt; stroke-dashoffset: 0; stroke-linejoin: miter; stroke-miterlimit: 4; fill: rgb(0,0,0); fill-rule: nonzero; opacity: 1;" vector-effect="non-scaling-stroke"  transform=" translate(-8413.57, -3908.27)" d="M 8211 4988 C 8210 4973 8222 4784 8236 4568 C 8251 4343 8263 4075 8264 3940 C 8265 3721 8262 3691 8232 3500 C 8176 3145 8177 3195 8220 2991 C 8240 2891 8260 2807 8263 2803 C 8273 2794 8365 2828 8429 2865 C 8530 2924 8592 3014 8619 3140 C 8638 3226 8645 3483 8631 3596 C 8611 3761 8577 3870 8490 4045 C 8375 4279 8311 4486 8255 4810 C 8240 4895 8224 4976 8220 4990 L 8212 5015 L 8211 4988 z" stroke-linecap="round" />
</g>
		<g transform="matrix(0.13 0 0 -0.13 -461.37 392.55)"  >
<path style="stroke: none; stroke-width: 1; stroke-dasharray: none; stroke-linecap: butt; stroke-dashoffset: 0; stroke-linejoin: miter; stroke-miterlimit: 4; fill: rgb(0,0,0); fill-rule: nonzero; opacity: 1;" vector-effect="non-scaling-stroke"  transform=" translate(-2845.72, -3455.35)" d="M 1364 4906 C 1378 4831 1473 4629 1565 4481 C 1629 4377 1683 4270 1745 4124 C 2026 3466 2516 2815 3043 2400 C 3247 2239 3519 2087 3715 2022 C 3945 1947 4215 1955 4306 2041 C 4326 2060 4330 2073 4330 2124 C 4330 2207 4307 2306 4273 2377 C 4238 2449 4131 2559 4030 2627 C 3789 2789 3569 2847 3085 2880 C 2809 2899 2775 2909 2639 3018 C 2458 3163 2281 3362 2127 3597 C 1999 3791 1819 4110 1838 4110 C 1847 4110 1964 4001 2302 3679 C 2827 3178 3010 3059 3375 2983 C 3545 2947 3618 2949 3722 2989 C 3844 3036 3855 3047 3854 3114 C 3852 3186 3818 3295 3774 3370 C 3661 3563 3377 3759 3080 3848 C 2999 3873 2983 3874 2725 3875 C 2426 3877 2413 3879 2297 3944 C 2212 3991 2065 4105 1961 4205 C 1847 4314 1737 4451 1590 4665 C 1450 4870 1395 4940 1373 4940 C 1361 4940 1359 4933 1364 4906 z" stroke-linecap="round" />
</g>
		<g transform="matrix(0.13 0 0 -0.13 125.35 512.38)"  >
<path style="stroke: none; stroke-width: 1; stroke-dasharray: none; stroke-linecap: butt; stroke-dashoffset: 0; stroke-linejoin: miter; stroke-miterlimit: 4; fill: rgb(0,0,0); fill-rule: nonzero; opacity: 1;" vector-effect="non-scaling-stroke"  transform=" translate(-7246.12, -2556.61)" d="M 8141 4278 C 8136 4249 8129 4158 8126 4075 C 8105 3555 8005 3246 7646 2588 C 7525 2366 7553 2390 7393 2370 C 7168 2341 7041 2271 6844 2068 C 6614 1830 6437 1586 6366 1407 C 6321 1293 6290 1076 6305 969 C 6318 878 6400 799 6499 784 C 6549 776 6667 797 6751 829 C 7019 931 7294 1247 7624 1832 C 7916 2351 8076 2851 8150 3470 C 8181 3735 8203 4265 8184 4314 C 8171 4347 8151 4330 8141 4278 z" stroke-linecap="round" />
</g>
		<g transform="matrix(0.13 0 0 -0.13 -280.35 400.96)"  >
<path style="stroke: none; stroke-width: 1; stroke-dasharray: none; stroke-linecap: butt; stroke-dashoffset: 0; stroke-linejoin: miter; stroke-miterlimit: 4; fill: rgb(0,0,0); fill-rule: nonzero; opacity: 1;" vector-effect="non-scaling-stroke"  transform=" translate(-4203.37, -3392.27)" d="M 4260 4045 C 4161 3911 4048 3708 4024 3624 C 4003 3546 3993 3182 4009 3048 C 4029 2873 4074 2774 4151 2735 C 4181 2719 4396 2683 4405 2692 C 4408 2695 4400 2791 4386 2906 C 4347 3231 4339 3367 4341 3610 C 4346 4003 4344 4048 4316 4085 C 4304 4102 4299 4098 4260 4045 z" stroke-linecap="round" />
</g>
		<g transform="matrix(0.13 0 0 -0.13 130.26 657.36)"  >
<path style="stroke: none; stroke-width: 1; stroke-dasharray: none; stroke-linecap: butt; stroke-dashoffset: 0; stroke-linejoin: miter; stroke-miterlimit: 4; fill: rgb(0,0,0); fill-rule: nonzero; opacity: 1;" vector-effect="non-scaling-stroke"  transform=" translate(-7282.93, -1469.27)" d="M 8157 2926 C 8147 2902 8131 2764 8115 2580 C 8074 2110 7994 1860 7711 1321 C 7550 1015 7520 980 7420 980 C 7362 980 7250 940 7112 871 C 6834 732 6681 592 6487 300 C 6408 180 6368 97 6372 60 C 6378 7 6391 5 6920 2 L 7405 -1 L 7442 82 C 7462 128 7553 332 7645 535 C 8025 1375 8081 1544 8139 2010 C 8183 2362 8208 2851 8186 2918 C 8178 2943 8165 2947 8157 2926 z" stroke-linecap="round" />
</g>
		<g transform="matrix(0.13 0 0 -0.13 368.56 578.73)"  >
<path style="stroke: none; stroke-width: 1; stroke-dasharray: none; stroke-linecap: butt; stroke-dashoffset: 0; stroke-linejoin: miter; stroke-miterlimit: 4; fill: rgb(0,0,0); fill-rule: nonzero; opacity: 1;" vector-effect="non-scaling-stroke"  transform=" translate(-9070.22, -2059)" d="M 10043 2828 C 10007 2793 9895 2673 9795 2560 C 9586 2324 9483 2224 9408 2180 C 9301 2118 9213 2103 8840 2080 C 8565 2063 8410 2031 8256 1961 L 8195 1933 L 8171 1809 C 8139 1640 8077 1402 8041 1307 L 8011 1228 L 8198 1232 L 8385 1236 L 8474 1274 C 8656 1355 8976 1553 9160 1700 C 9481 1958 9932 2462 10089 2741 C 10123 2801 10142 2890 10120 2890 C 10114 2890 10079 2862 10043 2828 z" stroke-linecap="round" />
</g>
		<g transform="matrix(0.13 0 0 -0.13 -354.63 609.57)"  >
<path style="stroke: none; stroke-width: 1; stroke-dasharray: none; stroke-linecap: butt; stroke-dashoffset: 0; stroke-linejoin: miter; stroke-miterlimit: 4; fill: rgb(0,0,0); fill-rule: nonzero; opacity: 1;" vector-effect="non-scaling-stroke"  transform=" translate(-3646.26, -1827.7)" d="M 2480 2638 C 2481 2471 3024 1821 3454 1473 C 3619 1340 3947 1136 4122 1058 C 4242 1005 4328 991 4536 990 C 4697 990 4709 991 4740 1013 C 4938 1146 4711 1519 4296 1744 C 4143 1827 4073 1842 3730 1860 C 3217 1887 3205 1894 2782 2373 C 2605 2573 2542 2638 2501 2660 C 2482 2670 2480 2668 2480 2638 z" stroke-linecap="round" />
</g>
		<g transform="matrix(0.13 0 0 -0.13 314.39 700.7)"  >
<path style="stroke: none; stroke-width: 1; stroke-dasharray: none; stroke-linecap: butt; stroke-dashoffset: 0; stroke-linejoin: miter; stroke-miterlimit: 4; fill: rgb(0,0,0); fill-rule: nonzero; opacity: 1;" vector-effect="non-scaling-stroke"  transform=" translate(-8663.9, -1144.27)" d="M 9779 2193 C 9736 2147 9696 2092 9556 1889 C 9351 1590 9134 1342 8971 1221 C 8882 1155 8833 1136 8714 1120 C 8602 1105 8328 1106 8239 1121 C 8198 1128 8153 1130 8139 1127 C 8126 1124 8063 1088 8001 1049 L 7887 977 L 7789 776 C 7680 551 7632 435 7554 213 L 7500 60 L 7544 60 C 7683 60 7942 169 8090 288 C 8137 326 8265 420 8375 495 C 8726 738 8836 827 9037 1031 C 9409 1409 9771 1945 9825 2198 C 9834 2240 9822 2239 9779 2193 z" stroke-linecap="round" />
</g>
		<g transform="matrix(0.13 0 0 -0.13 -303.09 719.85)"  >
<path style="stroke: none; stroke-width: 1; stroke-dasharray: none; stroke-linecap: butt; stroke-dashoffset: 0; stroke-linejoin: miter; stroke-miterlimit: 4; fill: rgb(0,0,0); fill-rule: nonzero; opacity: 1;" vector-effect="non-scaling-stroke"  transform=" translate(-4032.8, -1000.61)" d="M 2785 1999 C 2770 1960 2877 1728 3003 1524 C 3125 1328 3314 1083 3496 885 C 3694 670 3865 528 4207 291 C 4329 206 4459 113 4496 84 C 4533 54 4580 25 4599 19 C 4621 12 4765 6 4959 3 L 5282 -2 L 5278 126 C 5274 250 5273 258 5238 331 C 5209 390 5184 423 5119 484 C 5031 568 4794 730 4657 800 C 4528 865 4496 870 4195 880 C 3939 889 3817 902 3746 930 C 3655 964 3429 1173 3278 1360 C 3206 1450 3163 1509 2958 1801 C 2843 1964 2794 2020 2785 1999 z" stroke-linecap="round" />
</g>
</g>
</g>
</svg>